<?xml version="1.0" encoding="UTF-8" standalone="no"?>
<!-- Created with Inkscape (http://www.inkscape.org/) -->

<svg
   width="210mm"
   height="297mm"
   viewBox="0 0 210 297"
   version="1.1"
   id="svg5"
   inkscape:version="1.2.2 (732a01da63, 2022-12-09, custom)"
   sodipodi:docname="main_icon.svg"
   xmlns:inkscape="http://www.inkscape.org/namespaces/inkscape"
   xmlns:sodipodi="http://sodipodi.sourceforge.net/DTD/sodipodi-0.dtd"
   xmlns="http://www.w3.org/2000/svg"
   xmlns:svg="http://www.w3.org/2000/svg">
  <sodipodi:namedview
     id="namedview7"
     pagecolor="#ffffff"
     bordercolor="#000000"
     borderopacity="0.25"
     inkscape:showpageshadow="2"
     inkscape:pageopacity="0.0"
     inkscape:pagecheckerboard="0"
     inkscape:deskcolor="#d1d1d1"
     inkscape:document-units="mm"
     showgrid="false"
     inkscape:zoom="1.0880133"
     inkscape:cx="484.82861"
     inkscape:cy="357.07283"
     inkscape:window-width="1920"
     inkscape:window-height="1016"
     inkscape:window-x="0"
     inkscape:window-y="0"
     inkscape:window-maximized="1"
     inkscape:current-layer="layer1" />
  <defs
     id="defs2" />
  <g
     inkscape:label="Layer 1"
     inkscape:groupmode="layer"
     id="layer1">
    <g
       id="g2148">
      <path
         id="rect111"
         style="fill:#000000;stroke-width:0.261553"
         d="m 106.57401,64 a 6.8894519,6.9503967 0 0 0 -6.889537,6.949973 6.8894519,6.9503967 0 0 0 6.889537,6.950484 6.8894519,6.9503967 0 0 0 6.88903,-6.950484 A 6.8894519,6.9503967 0 0 0 106.57401,64 Z M 84.919719,72.936191 80,73.057284 l 0.288378,11.911674 2.085273,-0.05132 2.834447,-0.06978 14.301923,-0.352502 v 28.087234 h 0.0016 V 134 h 5.904879 v -21.41741 h 3.1681 V 134 h 5.90488 v -21.41741 h 5.1e-4 V 84.495363 l 14.30192,0.352502 2.83446,0.06978 2.08526,0.05132 0.2884,-11.911677 -4.91972,-0.121093 -0.16682,6.896611 -1.25116,-0.03079 a 5.9052761,3.7627277 1.4278348 0 0 -5.68263,-3.067839 5.9052761,3.7627277 1.4278348 0 0 -5.82655,2.784093 l -1.13317,-0.02771 a 1.59057,0.64833496 0 0 0 -1.56702,-0.539784 1.59057,0.64833496 0 0 0 -1.49936,0.432032 h -9.90713 a 1.59057,0.64833496 0 0 0 -1.49936,-0.432032 1.59057,0.64833496 0 0 0 -1.56701,0.539784 l -1.133167,0.02771 a 3.7627277,5.9052761 88.572165 0 0 -5.826559,-2.784093 3.7627277,5.9052761 88.572165 0 0 -5.682625,3.067839 l -1.251163,0.03079 z" />
      <circle
         style="fill:#000000;fill-opacity:0;stroke:#000000;stroke-width:2.19512;stroke-dasharray:none;stroke-opacity:1"
         id="path375"
         cx="107"
         cy="97"
         r="43.902443" />
    </g>
    <path
       id="path2150"
       style="fill:#000000;fill-opacity:1;stroke:none;stroke-width:2.98445;stroke-dasharray:none;stroke-opacity:1"
       d="M 82.000118,46 A 15,15 0 0 0 67,61.000118 15,15 0 0 0 68.101742,66.628715 L 92.324036,50.120678 A 15,15 0 0 0 82.000118,46 Z" />
    <path
       id="path2150-3"
       style="fill:#000000;fill-opacity:1;stroke:none;stroke-width:2.98445;stroke-dasharray:none;stroke-opacity:1"
       d="m 131.99991,46 a 15,15 0 0 1 15.00012,15.000118 15,15 0 0 1 -1.10174,5.628597 L 121.676,50.120678 A 15,15 0 0 1 131.99991,46 Z" />
    <rect
       style="fill:#000000;fill-opacity:1;stroke:none;stroke-width:3.03073;stroke-dasharray:none;stroke-opacity:1"
       id="rect3611"
       width="2.0328045"
       height="11.389441"
       x="135.43637"
       y="83.551903"
       inkscape:transform-center-x="2.3116058"
       inkscape:transform-center-y="4.0605837"
       transform="matrix(0.89808296,0.43982609,-0.45431313,0.89084206,0,0)" />
    <rect
       style="fill:#000000;fill-opacity:1;stroke:none;stroke-width:3.03073;stroke-dasharray:none;stroke-opacity:1"
       id="rect3611-5"
       width="2.0328045"
       height="11.389441"
       x="-55.228832"
       y="177.68703"
       inkscape:transform-center-x="-2.3116141"
       inkscape:transform-center-y="4.0605879"
       transform="matrix(-0.89808297,0.43982609,0.45431313,0.89084206,0,0)" />
  </g>
</svg>
