<?xml version="1.0" encoding="UTF-8" standalone="no"?>
<!-- Created with Inkscape (http://www.inkscape.org/) -->

<svg
   width="189.99998mm"
   height="190mm"
   viewBox="0 0 189.99998 190"
   version="1.1"
   id="svg5"
   xmlns="http://www.w3.org/2000/svg"
   xmlns:svg="http://www.w3.org/2000/svg">
  <defs
     id="defs2" />
  <g
     id="layer1">
    <path
       id="rect111"
       style="fill:#000000;stroke-width:0.261553"
       d="m 94.574019,63 a 6.8894514,6.9503967 0 0 0 -6.889536,6.949973 6.8894514,6.9503967 0 0 0 6.889536,6.950484 6.8894514,6.9503967 0 0 0 6.889031,-6.950484 A 6.8894514,6.9503967 0 0 0 94.574019,63 Z m -21.65429,8.936191 -4.919718,0.121093 0.288378,11.911674 2.085273,-0.05132 2.834446,-0.06978 14.301923,-0.352502 v 28.087234 h 0.0016 V 133 h 5.904878 v -21.41741 h 3.1681 V 133 h 5.904881 V 111.58259 H 102.49 V 83.495363 l 14.30192,0.352502 2.83446,0.06978 2.08526,0.05132 0.2884,-11.911677 -4.91972,-0.121093 -0.16682,6.896611 -1.25116,-0.03079 a 5.9052757,3.7627277 1.427835 0 0 -5.68263,-3.067839 5.9052757,3.7627277 1.427835 0 0 -5.82655,2.784093 l -1.13317,-0.02771 a 1.5905699,0.64833496 0 0 0 -1.56702,-0.539784 1.5905699,0.64833496 0 0 0 -1.499361,0.432032 h -9.90713 a 1.5905699,0.64833496 0 0 0 -1.49936,-0.432032 1.5905699,0.64833496 0 0 0 -1.567009,0.539784 l -1.133167,0.02771 a 3.7627277,5.9052757 88.572165 0 0 -5.826559,-2.784093 3.7627277,5.9052757 88.572165 0 0 -5.682625,3.067839 l -1.251163,0.03079 z" />
    <ellipse
       style="fill:#000000;fill-opacity:0;stroke:#000000;stroke-width:2.19512;stroke-dasharray:none;stroke-opacity:1"
       id="path375"
       cx="95"
       cy="96"
       rx="43.902439"
       ry="43.902443" />
    <path
       id="path2150"
       style="fill:#000000;fill-opacity:1;stroke:none;stroke-width:2.98445;stroke-dasharray:none;stroke-opacity:1"
       d="m 70.000129,45 a 14.999999,15 0 0 0 -15.000117,15.000118 14.999999,15 0 0 0 1.101742,5.628597 L 80.324046,49.120678 A 14.999999,15 0 0 0 70.000129,45 Z" />
    <path
       id="path2150-3"
       style="fill:#000000;fill-opacity:1;stroke:none;stroke-width:2.98445;stroke-dasharray:none;stroke-opacity:1"
       d="m 119.99992,45 a 14.999999,15 0 0 1 15.00011,15.000118 14.999999,15 0 0 1 -1.10174,5.628597 L 109.67601,49.120678 A 14.999999,15 0 0 1 119.99992,45 Z" />
    <rect
       style="fill:#000000;fill-opacity:1;stroke:none;stroke-width:2.77746;stroke-dasharray:none;stroke-opacity:1"
       id="rect2814"
       width="2"
       height="5.9999995"
       x="-97"
       y="134"
       transform="rotate(-90)" />
    <rect
       style="fill:#000000;fill-opacity:1;stroke:none;stroke-width:2.53546;stroke-dasharray:none;stroke-opacity:1"
       id="rect2814-9"
       width="2"
       height="4.9999995"
       x="-97"
       y="51.000015"
       transform="rotate(-90)" />
    <rect
       style="fill:#000000;fill-opacity:1;stroke:none;stroke-width:2.53546;stroke-dasharray:none;stroke-opacity:1"
       id="rect2814-8"
       width="1.9999999"
       height="5"
       x="94"
       y="52" />
    <rect
       style="fill:#000000;fill-opacity:1;stroke:none;stroke-width:2.53546;stroke-dasharray:none;stroke-opacity:1"
       id="rect2814-7"
       width="1.9999999"
       height="5"
       x="94"
       y="135" />
    <rect
       style="fill:#000000;fill-opacity:1;stroke:none;stroke-width:3.03073;stroke-dasharray:none;stroke-opacity:1"
       id="rect3611"
       width="2.0328045"
       height="11.389441"
       x="124.2905"
       y="87.932289"
       transform="matrix(0.89808295,0.43982612,-0.45431311,0.89084207,0,0)" />
    <rect
       style="fill:#000000;fill-opacity:1;stroke:none;stroke-width:3.03073;stroke-dasharray:none;stroke-opacity:1"
       id="rect3611-5"
       width="2.0328045"
       height="11.389441"
       x="-44.991707"
       y="171.51024"
       transform="matrix(-0.89808295,0.43982611,0.45431311,0.89084207,0,0)" />
  </g>
</svg>
