<?xml version="1.0" encoding="UTF-8" standalone="no"?>
<!-- Created with Inkscape (http://www.inkscape.org/) -->

<svg
   width="54.000031mm"
   height="69.999992mm"
   viewBox="0 0 54.000031 69.999992"
   version="1.1"
   id="svg5"
   sodipodi:docname="muscle_guy.svg"
   xmlns:inkscape="http://www.inkscape.org/namespaces/inkscape"
   xmlns:sodipodi="http://sodipodi.sourceforge.net/DTD/sodipodi-0.dtd"
   xmlns="http://www.w3.org/2000/svg"
   xmlns:svg="http://www.w3.org/2000/svg">
  <sodipodi:namedview
     id="namedview7"
     pagecolor="#ffffff"
     bordercolor="#000000"
     borderopacity="0.25"
     inkscape:showpageshadow="2"
     inkscape:pageopacity="0.0"
     inkscape:pagecheckerboard="0"
     inkscape:deskcolor="#d1d1d1"
     inkscape:document-units="mm"
     showgrid="false"
     inkscape:zoom="1.0880133"
     inkscape:cx="484.82861"
     inkscape:cy="357.07283"
     inkscape:window-width="1920"
     inkscape:window-height="1016"
     inkscape:window-x="0"
     inkscape:window-y="0"
     inkscape:window-maximized="1"
     inkscape:current-layer="layer1" />
  <defs
     id="defs2" />
  <g
     inkscape:label="Layer 1"
     inkscape:groupmode="layer"
     id="layer1"
     transform="translate(-80.000002,-64.000006)">
    <path
       id="rect111"
       style="fill:#000000;stroke-width:0.261553"
       d="m 106.57401,64 a 6.8894519,6.9503967 0 0 0 -6.889537,6.949973 6.8894519,6.9503967 0 0 0 6.889537,6.950484 6.8894519,6.9503967 0 0 0 6.88903,-6.950484 A 6.8894519,6.9503967 0 0 0 106.57401,64 Z M 84.919719,72.936191 80,73.057284 l 0.288378,11.911674 2.085273,-0.05132 2.834447,-0.06978 14.301923,-0.352502 v 28.087234 h 0.0016 V 134 h 5.904879 v -21.41741 h 3.1681 V 134 h 5.90488 v -21.41741 h 5.1e-4 V 84.495363 l 14.30192,0.352502 2.83446,0.06978 2.08526,0.05132 0.2884,-11.911677 -4.91972,-0.121093 -0.16682,6.896611 -1.25116,-0.03079 a 5.9052761,3.7627277 1.4278348 0 0 -5.68263,-3.067839 5.9052761,3.7627277 1.4278348 0 0 -5.82655,2.784093 l -1.13317,-0.02771 a 1.59057,0.64833496 0 0 0 -1.56702,-0.539784 1.59057,0.64833496 0 0 0 -1.49936,0.432032 h -9.90713 a 1.59057,0.64833496 0 0 0 -1.49936,-0.432032 1.59057,0.64833496 0 0 0 -1.56701,0.539784 l -1.133167,0.02771 a 3.7627277,5.9052761 88.572165 0 0 -5.826559,-2.784093 3.7627277,5.9052761 88.572165 0 0 -5.682625,3.067839 l -1.251163,0.03079 z"
       inkscape:export-filename="muscle_guy.svg"
       inkscape:export-xdpi="96"
       inkscape:export-ydpi="96" />
  </g>
</svg>
